<svg width="23" height="8" viewBox="0 0 23 8" fill="none" xmlns="http://www.w3.org/2000/svg">
    <path d="M21.999 3.5C22.2752 3.5 22.499 3.72386 22.499 4C22.499 4.27614 22.2752 4.5 21.999 4.5V3.5ZM0.646425 4.35355C0.451163 4.15829 0.451163 3.84171 0.646425 3.64645L3.82841 0.464466C4.02367 0.269204 4.34025 0.269204 4.53551 0.464466C4.73077 0.659728 4.73077 0.976311 4.53551 1.17157L1.70708 4L4.53551 6.82843C4.73077 7.02369 4.73077 7.34027 4.53551 7.53553C4.34025 7.7308 4.02367 7.7308 3.82841 7.53553L0.646425 4.35355ZM21.999 4.5L0.999978 4.5V3.5L21.999 3.5V4.5Z" fill="currentColor"/>
</svg>
