<svg width="483" height="191" viewBox="0 0 483 191" fill="none" xmlns="http://www.w3.org/2000/svg">
    <path d="M19.6591 174.753C17.0337 159.35 16.3862 145.836 27.5655 133.161C39.5615 119.559 57.3718 109.465 76.1627 110.349C101.407 111.536 122.567 128.109 148.884 116.656C158.914 112.292 165.308 93.9463 168.456 84.8489C172.285 73.7818 176.948 63.2778 179.503 51.906C183.259 35.1856 193.421 28.4875 209.891 23.9322C233.984 17.2689 258.614 27.9943 282.771 29.2107C287.238 29.4356 303.303 32.1504 304.879 26.9454" stroke="currentColor" stroke-width="32" stroke-linecap="round"/>
    <path d="M180.659 169.753C178.034 154.35 177.386 140.836 188.566 128.161C200.562 114.559 218.372 104.465 237.163 105.349C262.407 106.536 283.567 123.109 309.884 111.656C319.914 107.292 326.308 88.9463 329.456 79.8489C333.285 68.7818 337.948 58.2778 340.503 46.906C344.259 30.1856 354.421 23.4875 370.891 18.9322C394.984 12.2689 419.614 22.9943 443.771 24.2107C448.238 24.4356 464.303 27.1504 465.879 21.9454" stroke="currentColor" stroke-width="32" stroke-linecap="round"/>
</svg>
