<svg width="40" height="40" viewBox="0 0 40 40" fill="none" xmlns="http://www.w3.org/2000/svg">
<path d="M10.8764 26.4188C10.666 26.5977 10.6404 26.9132 10.8192 27.1236C10.9981 27.334 11.3136 27.3596 11.524 27.1808L10.8764 26.4188ZM27.6986 13.2402C27.7209 12.965 27.5158 12.7238 27.2406 12.7014L22.7553 12.3378C22.4801 12.3155 22.2389 12.5205 22.2165 12.7957C22.1942 13.071 22.3993 13.3122 22.6745 13.3345L26.6614 13.6578L26.3382 17.6447C26.3158 17.9199 26.5209 18.1611 26.7961 18.1835C27.0714 18.2058 27.3126 18.0007 27.3349 17.7255L27.6986 13.2402ZM11.524 27.1808L27.524 13.5808L26.8764 12.8188L10.8764 26.4188L11.524 27.1808Z" fill="currentColor"/>
</svg>
