<svg width="69" height="32" viewBox="0 0 69 32" fill="none" xmlns="http://www.w3.org/2000/svg">
<path d="M18.96 18.176C18.96 19.4773 18.608 20.5653 17.904 21.44C17.2213 22.2933 16.2933 22.9333 15.12 23.36C13.9467 23.7867 12.656 24 11.248 24H0.176V1.28H12.816C13.8827 1.28 14.8 1.568 15.568 2.144C16.3573 2.69867 16.9547 3.424 17.36 4.32C17.7867 5.216 18 6.144 18 7.104C18 8.17067 17.7227 9.19467 17.168 10.176C16.6133 11.136 15.8027 11.8613 14.736 12.352C16.0373 12.736 17.0613 13.4187 17.808 14.4C18.576 15.3813 18.96 16.64 18.96 18.176ZM13.616 17.12C13.616 16.6293 13.52 16.2027 13.328 15.84C13.136 15.456 12.88 15.1573 12.56 14.944C12.2613 14.7093 11.8987 14.592 11.472 14.592H5.424V19.552H11.248C11.696 19.552 12.0907 19.4453 12.432 19.232C12.7947 19.0187 13.0827 18.7307 13.296 18.368C13.5093 18.0053 13.616 17.5893 13.616 17.12ZM5.424 5.76V10.464H10.576C10.96 10.464 11.312 10.3787 11.632 10.208C11.9733 10.0373 12.2507 9.78133 12.464 9.44C12.6773 9.07733 12.784 8.62933 12.784 8.096C12.784 7.584 12.688 7.15733 12.496 6.816C12.3253 6.47467 12.0907 6.21867 11.792 6.048C11.4933 5.856 11.152 5.76 10.768 5.76H5.424ZM21.571 0.639999H26.691V18.016C26.691 18.72 26.819 19.2213 27.075 19.52C27.331 19.8187 27.6937 19.968 28.163 19.968C28.483 19.968 28.803 19.9253 29.123 19.84C29.4643 19.7333 29.763 19.616 30.019 19.488L30.691 23.328C30.051 23.6267 29.315 23.8613 28.483 24.032C27.651 24.2027 26.8723 24.288 26.147 24.288C24.6963 24.288 23.5657 23.904 22.755 23.136C21.9657 22.3467 21.571 21.2373 21.571 19.808V0.639999ZM40.3538 24.32C38.9244 24.32 37.6444 24.0853 36.5138 23.616C35.4044 23.1467 34.4658 22.5067 33.6978 21.696C32.9298 20.8853 32.3431 19.9573 31.9378 18.912C31.5538 17.8667 31.3618 16.768 31.3618 15.616C31.3618 14.4427 31.5538 13.3333 31.9378 12.288C32.3431 11.2427 32.9298 10.3147 33.6978 9.504C34.4658 8.69333 35.4044 8.05333 36.5138 7.584C37.6444 7.11467 38.9244 6.88 40.3538 6.88C41.7831 6.88 43.0524 7.11467 44.1618 7.584C45.2711 8.05333 46.2098 8.69333 46.9778 9.504C47.7458 10.3147 48.3324 11.2427 48.7378 12.288C49.1431 13.3333 49.3458 14.4427 49.3458 15.616C49.3458 16.768 49.1431 17.8667 48.7378 18.912C48.3324 19.9573 47.7458 20.8853 46.9778 21.696C46.2098 22.5067 45.2711 23.1467 44.1618 23.616C43.0524 24.0853 41.7831 24.32 40.3538 24.32ZM36.6098 15.616C36.6098 16.4907 36.7698 17.2587 37.0898 17.92C37.4311 18.5813 37.8791 19.0933 38.4338 19.456C38.9884 19.8187 39.6284 20 40.3538 20C41.0578 20 41.6871 19.8187 42.2418 19.456C42.8178 19.072 43.2658 18.5493 43.5858 17.888C43.9058 17.2267 44.0658 16.4693 44.0658 15.616C44.0658 14.7413 43.9058 13.9733 43.5858 13.312C43.2658 12.6507 42.8178 12.1387 42.2418 11.776C41.6871 11.4133 41.0578 11.232 40.3538 11.232C39.6284 11.232 38.9884 11.4133 38.4338 11.776C37.8791 12.1387 37.4311 12.6507 37.0898 13.312C36.7698 13.9733 36.6098 14.7413 36.6098 15.616ZM58.413 24.064C57.3037 24.064 56.2903 23.8507 55.373 23.424C54.4557 22.976 53.6663 22.368 53.005 21.6C52.365 20.8107 51.8637 19.904 51.501 18.88C51.1383 17.856 50.957 16.7573 50.957 15.584C50.957 14.3467 51.149 13.2053 51.533 12.16C51.917 11.1147 52.4503 10.1973 53.133 9.408C53.837 8.59733 54.6583 7.97867 55.597 7.552C56.557 7.104 57.613 6.88 58.765 6.88C60.0237 6.88 61.133 7.15733 62.093 7.712C63.053 8.24533 63.821 8.992 64.397 9.952V7.2H68.845V22.848C68.845 24.5547 68.429 26.0267 67.597 27.264C66.7863 28.5013 65.645 29.4507 64.173 30.112C62.7223 30.7947 61.037 31.136 59.117 31.136C57.325 31.136 55.7783 30.8373 54.477 30.24C53.197 29.664 52.077 28.8427 51.117 27.776L53.869 24.992C54.4877 25.696 55.2557 26.2507 56.173 26.656C57.0903 27.0827 58.0717 27.296 59.117 27.296C59.949 27.296 60.717 27.1467 61.421 26.848C62.125 26.5493 62.6797 26.0693 63.085 25.408C63.5117 24.7467 63.725 23.8933 63.725 22.848V21.216C63.213 22.1333 62.4663 22.8373 61.485 23.328C60.525 23.8187 59.501 24.064 58.413 24.064ZM60.173 20C60.5783 20 60.9517 19.9467 61.293 19.84C61.6557 19.712 61.9863 19.552 62.285 19.36C62.5837 19.1467 62.861 18.9013 63.117 18.624C63.373 18.3253 63.5757 18.0053 63.725 17.664V14.144C63.5117 13.5467 63.2023 13.0347 62.797 12.608C62.3917 12.16 61.9437 11.8187 61.453 11.584C60.9623 11.3493 60.4503 11.232 59.917 11.232C59.3837 11.232 58.8823 11.3493 58.413 11.584C57.9437 11.8187 57.5383 12.16 57.197 12.608C56.877 13.0347 56.621 13.5147 56.429 14.048C56.2583 14.5813 56.173 15.136 56.173 15.712C56.173 16.3307 56.269 16.896 56.461 17.408C56.6743 17.92 56.9623 18.3787 57.325 18.784C57.6877 19.168 58.1143 19.4667 58.605 19.68C59.0957 19.8933 59.6183 20 60.173 20Z" fill="currentColor"/>
</svg>
