<svg width="587" height="242" viewBox="0 0 587 242" fill="none" xmlns="http://www.w3.org/2000/svg">
    <path fill-rule="evenodd" clip-rule="evenodd" d="M128.209 100.814C162.768 109.859 186.677 124.064 184.727 135.874C182.775 147.691 155.539 153.447 119.879 150.879C110.831 185.084 96.7343 208.678 84.9997 206.738C73.2579 204.797 67.4968 177.889 69.9397 142.558C35.7156 133.506 12.1041 119.4 14.0428 107.661C15.9805 95.9287 42.843 90.1705 78.1288 92.6022C87.1687 58.0232 101.377 34.0973 113.19 36.0501C124.997 38.0016 130.756 65.1958 128.209 100.814Z" fill="currentColor"/>
    <path fill-rule="evenodd" clip-rule="evenodd" d="M326.836 126.646C344.801 157.362 351.629 184.187 341.932 191.152C332.232 198.12 308.991 183.058 285.631 156.189C255.03 174.054 228.342 180.824 221.4 171.151C214.457 161.478 229.403 138.339 256.112 115.039C238.178 84.3536 231.369 57.5657 241.057 50.6061C250.742 43.6494 273.922 58.6503 297.243 85.4367C328.025 67.3819 354.932 60.5029 361.907 70.2208C368.881 79.9377 353.769 103.241 326.836 126.646Z" fill="currentColor"/>
    <path fill-rule="evenodd" clip-rule="evenodd" d="M499.594 102.14C534.832 96.6591 562.362 100.141 565.282 111.736C568.206 123.347 545.541 139.497 511.832 151.383C517.071 186.113 513.537 213.124 502.06 216.017C490.578 218.912 474.663 196.779 462.826 163.686C427.777 169.08 400.44 165.581 397.531 154.03C394.626 142.496 416.97 126.484 450.305 114.621C444.685 79.0612 448.143 51.1971 459.81 48.2557C471.471 45.3157 487.703 68.1889 499.594 102.14Z" fill="currentColor"/>
</svg>
